<?xml version="1.0" encoding="UTF-8" standalone="no"?>
<!-- Created with Inkscape (http://www.inkscape.org/) -->

<svg
   xmlns:dc="http://purl.org/dc/elements/1.1/"
   xmlns:cc="http://creativecommons.org/ns#"
   xmlns:rdf="http://www.w3.org/1999/02/22-rdf-syntax-ns#"
   xmlns:svg="http://www.w3.org/2000/svg"
   xmlns="http://www.w3.org/2000/svg"
   xmlns:sodipodi="http://sodipodi.sourceforge.net/DTD/sodipodi-0.dtd"
   xmlns:inkscape="http://www.inkscape.org/namespaces/inkscape"
   width="500"
   height="300"
   viewBox="0 0 132.29167 79.374997"
   version="1.1"
   id="svg8"
   inkscape:version="0.92.4 (5da689c313, 2019-01-14)"
   sodipodi:docname="outputs.svg"
   inkscape:export-filename="C:\Users\boltg\Test Website\testSite\_assets\icons\biography1.png"
   inkscape:export-xdpi="96"
   inkscape:export-ydpi="96">
  <defs
     id="defs2">
    <clipPath
       clipPathUnits="userSpaceOnUse"
       id="clipPath3756">
      <rect
         style="fill:#f2f2f2;stroke-width:2.41257024"
         id="rect3758"
         width="132.29167"
         height="79.375"
         x="-47.776058"
         y="255.49823" />
    </clipPath>
    <clipPath
       clipPathUnits="userSpaceOnUse"
       id="clipPath37">
      <rect
         style="fill:#cccccc;stroke-width:0.35783678"
         id="rect39"
         width="132.29167"
         height="79.375"
         x="122.69121"
         y="284.98038" />
    </clipPath>
    <clipPath
       clipPathUnits="userSpaceOnUse"
       id="clipPath26">
      <rect
         style="fill:#cccccc;stroke-width:0.23046133"
         id="rect28"
         width="132.29167"
         height="79.375"
         x="235.32812"
         y="148.90895" />
    </clipPath>
  </defs>
  <sodipodi:namedview
     id="base"
     pagecolor="#ffffff"
     bordercolor="#666666"
     borderopacity="1.0"
     inkscape:pageopacity="0.0"
     inkscape:pageshadow="2"
     inkscape:zoom="1.4"
     inkscape:cx="123.36655"
     inkscape:cy="162.92736"
     inkscape:document-units="mm"
     inkscape:current-layer="layer1"
     showgrid="false"
     inkscape:window-width="1842"
     inkscape:window-height="1057"
     inkscape:window-x="1990"
     inkscape:window-y="-8"
     inkscape:window-maximized="1"
     units="px" />
  <metadata
     id="metadata5">
    <rdf:RDF>
      <cc:Work
         rdf:about="">
        <dc:format>image/svg+xml</dc:format>
        <dc:type
           rdf:resource="http://purl.org/dc/dcmitype/StillImage" />
        <dc:title />
      </cc:Work>
    </rdf:RDF>
  </metadata>
  <g
     inkscape:label="Layer 1"
     inkscape:groupmode="layer"
     id="layer1"
     transform="translate(-54.277516,-125.85239)">
    <rect
       y="124.24599"
       x="53.143585"
       height="82.587799"
       width="134.55952"
       id="rect831"
       style="fill:#251621;fill-opacity:0.90909095;stroke-width:0.26458332"
       inkscape:export-xdpi="96"
       inkscape:export-ydpi="96" />
  </g>
  <g
     inkscape:groupmode="layer"
     id="layer2"
     inkscape:label="Layer 2">
    <g
       id="g47"
       transform="matrix(0.07234701,0,0,0.07234701,47.624984,21.16667)"
       style="fill:#e6e6e6"
       inkscape:export-xdpi="96"
       inkscape:export-ydpi="96">
      <path
         id="path43"
         d="M 170.698,448 H 72.757 c -4.814,-0.012 -8.714,-3.911 -8.725,-8.725 V 72.725 C 64.044,67.911 67.943,64.011 72.757,64 h 97.941 c 17.673,0 32,-14.327 32,-32 0,-17.673 -14.327,-32 -32,-32 H 72.757 C 32.611,0.047 0.079,32.58 0.032,72.725 V 439.274 C 0.079,479.42 32.611,511.953 72.757,512 h 97.941 c 17.673,0 32,-14.327 32,-32 0,-17.673 -14.327,-32 -32,-32 z"
         inkscape:connector-curvature="0"
         style="fill:#e6e6e6" />
      <path
         id="path45"
         d="m 483.914,188.117 -82.816,-82.752 c -12.501,-12.495 -32.764,-12.49 -45.259,0.011 -12.495,12.501 -12.49,32.764 0.011,45.259 L 428.639,223.403 138.698,224 c -17.673,0 -32,14.327 -32,32 0,17.673 14.327,32 32,32 v 0 l 291.115,-0.533 -73.963,73.963 c -12.042,12.936 -11.317,33.184 1.618,45.226 12.295,11.445 31.346,11.436 43.63,-0.021 l 82.752,-82.752 c 37.491,-37.49 37.491,-98.274 10e-4,-135.764 0,0 -10e-4,-0.001 -10e-4,-0.001 z"
         inkscape:connector-curvature="0"
         style="fill:#e6e6e6" />
    </g>
  </g>
</svg>
