<?xml version="1.0" encoding="UTF-8" standalone="no"?>
<!-- Created with Inkscape (http://www.inkscape.org/) -->

<svg
   xmlns:dc="http://purl.org/dc/elements/1.1/"
   xmlns:cc="http://creativecommons.org/ns#"
   xmlns:rdf="http://www.w3.org/1999/02/22-rdf-syntax-ns#"
   xmlns:svg="http://www.w3.org/2000/svg"
   xmlns="http://www.w3.org/2000/svg"
   xmlns:sodipodi="http://sodipodi.sourceforge.net/DTD/sodipodi-0.dtd"
   xmlns:inkscape="http://www.inkscape.org/namespaces/inkscape"
   width="500"
   height="300"
   viewBox="0 0 132.29167 79.374997"
   version="1.1"
   id="svg8"
   inkscape:version="0.92.4 (5da689c313, 2019-01-14)"
   sodipodi:docname="research.svg"
   inkscape:export-filename="C:\Users\boltg\Test Website\testSite\_assets\icons\biography1.png"
   inkscape:export-xdpi="96"
   inkscape:export-ydpi="96">
  <defs
     id="defs2">
    <clipPath
       clipPathUnits="userSpaceOnUse"
       id="clipPath3756">
      <rect
         style="fill:#f2f2f2;stroke-width:2.41257024"
         id="rect3758"
         width="132.29167"
         height="79.375"
         x="-47.776058"
         y="255.49823" />
    </clipPath>
    <clipPath
       clipPathUnits="userSpaceOnUse"
       id="clipPath37">
      <rect
         style="fill:#cccccc;stroke-width:0.35783678"
         id="rect39"
         width="132.29167"
         height="79.375"
         x="122.69121"
         y="284.98038" />
    </clipPath>
  </defs>
  <sodipodi:namedview
     id="base"
     pagecolor="#ffffff"
     bordercolor="#666666"
     borderopacity="1.0"
     inkscape:pageopacity="0.0"
     inkscape:pageshadow="2"
     inkscape:zoom="1.4"
     inkscape:cx="230.73043"
     inkscape:cy="123.7536"
     inkscape:document-units="mm"
     inkscape:current-layer="layer1"
     showgrid="false"
     inkscape:window-width="1842"
     inkscape:window-height="1057"
     inkscape:window-x="1990"
     inkscape:window-y="-8"
     inkscape:window-maximized="1"
     units="px" />
  <metadata
     id="metadata5">
    <rdf:RDF>
      <cc:Work
         rdf:about="">
        <dc:format>image/svg+xml</dc:format>
        <dc:type
           rdf:resource="http://purl.org/dc/dcmitype/StillImage" />
        <dc:title />
      </cc:Work>
    </rdf:RDF>
  </metadata>
  <g
     inkscape:label="Layer 1"
     inkscape:groupmode="layer"
     id="layer1"
     transform="translate(-54.277516,-125.85239)">
    <rect
       y="124.24599"
       x="53.143585"
       height="82.587799"
       width="134.55952"
       id="rect831"
       style="fill:#251621;fill-opacity:0.90909095;stroke-width:0.26458332"
       inkscape:export-xdpi="96"
       inkscape:export-ydpi="96" />
  </g>
  <g
     inkscape:groupmode="layer"
     id="layer2"
     inkscape:label="Layer 2">
    <path
       id="path3764"
       d="m 63.059195,48.176215 a 10.032118,10.032118 0 0 1 16.97743,-7.2293 v -15.15004 a 4.6302083,4.6302083 0 0 0 -4.63021,-4.63021 h -18.52083 a 7.7262744,7.7262744 0 0 0 -7.71702,7.71702 v 21.60764 a 7.7262744,7.7262744 0 0 0 7.71702,7.71701 h 16.20573 a 10.032118,10.032118 0 0 1 -10.03212,-10.03212 z m -6.17361,-16.20573 a 1.5434028,1.5434028 0 0 1 1.5434,-1.5434 h 12.34722 a 1.543405,1.543405 0 0 1 0,3.08681 h -12.34722 a 1.5434028,1.5434028 0 0 1 -1.5434,-1.54341 z m 25.78563,25.78563 a 1.5434028,1.5434028 0 0 1 -2.18237,0 l -3.71497,-3.71497 a 6.8789462,6.8789462 0 0 1 -3.68256,1.08038 6.9453125,6.9453125 0 1 1 6.94531,-6.94531 6.8789462,6.8789462 0 0 1 -1.08038,3.68256 l 3.71497,3.71497 a 1.5434028,1.5434028 0 0 1 0,2.18237 z"
       inkscape:connector-curvature="0"
       style="fill:#e6e6e6;stroke-width:1.54340279"
       inkscape:export-xdpi="96"
       inkscape:export-ydpi="96" />
  </g>
</svg>
